<?xml version="1.0" standalone="no"?>
<!DOCTYPE svg PUBLIC "-//W3C//DTD SVG 20010904//EN"
 "http://www.w3.org/TR/2001/REC-SVG-20010904/DTD/svg10.dtd">
<svg version="1.0" xmlns="http://www.w3.org/2000/svg"
 width="563.000000pt" height="563.000000pt" viewBox="0 0 563.000000 563.000000"
 preserveAspectRatio="xMidYMid meet">

<g transform="translate(0.000000,563.000000) scale(0.100000,-0.100000)"
fill="#ffffff" stroke="none">
<path d="M3180 4850 c-60 -37 -76 -56 -21 -26 14 8 31 12 38 9 7 -3 13 0 13 7
0 6 4 9 9 5 5 -3 12 -1 16 5 12 20 27 10 23 -15 -3 -15 -1 -22 5 -18 6 4 8 -3
4 -18 -4 -14 2 -40 13 -64 21 -43 21 -43 -1 83 -7 39 -17 72 -23 72 -6 -1 -40
-19 -76 -40z"/>
<path d="M3166 4811 c-8 -13 -55 -20 -59 -8 -7 22 -37 -25 -31 -49 3 -13 2
-24 -4 -24 -13 0 -24 29 -16 43 5 9 4 9 -6 0 -15 -14 -5 -63 13 -63 7 0 19 6
25 12 15 15 44 17 54 3 5 -6 8 -6 8 2 0 6 -4 15 -10 18 -5 3 -10 11 -10 16 0
6 5 7 10 4 6 -3 10 -1 10 4 0 6 5 11 10 11 6 0 9 -4 8 -9 -2 -5 2 -9 7 -9 6 0
9 4 8 9 -4 14 15 11 20 -3 3 -7 6 -1 6 13 1 16 -6 29 -15 33 -20 8 -22 8 -28
-3z"/>
<path d="M4177 4763 c-222 -280 -387 -498 -387 -510 0 -12 -8 -14 -34 -10 -33
5 -35 4 -95 -90 -50 -78 -61 -102 -61 -137 0 -32 -17 -79 -68 -187 -38 -79
-133 -285 -212 -456 l-144 -313 -586 0 c-454 0 -590 -3 -602 -12 -9 -7 -88
-182 -176 -388 -88 -206 -235 -549 -326 -762 -91 -213 -166 -394 -166 -402 0
-8 42 -95 94 -193 196 -374 412 -782 458 -868 27 -49 56 -105 65 -122 l17 -33
877 0 878 0 19 28 c11 15 99 180 197 367 97 187 233 446 301 576 68 130 124
242 124 248 0 6 -38 97 -84 203 -147 336 -423 980 -454 1058 -68 172 -115 276
-130 288 -9 6 -43 12 -78 12 l-63 0 16 38 c8 20 55 120 103 222 48 102 118
251 155 332 56 123 73 151 101 167 18 11 42 37 53 58 10 21 35 60 55 88 20 27
36 62 36 76 0 18 63 120 190 308 214 317 212 314 204 334 -9 25 -192 137 -222
137 -5 0 -29 -26 -55 -57z m111 8 c61 -32 128 -81 112 -81 -9 0 -24 -14 -34
-31 -10 -16 -112 -124 -227 -240 l-208 -210 -55 32 -56 31 53 66 c30 37 98
123 153 192 54 69 121 155 148 193 28 37 56 67 63 67 8 0 30 -9 51 -19z m125
-126 c-3 -9 -8 -14 -10 -11 -3 3 -2 9 2 15 9 16 15 13 8 -4z m-43 -19 c0 -2
-8 -10 -17 -17 -16 -13 -17 -12 -4 4 13 16 21 21 21 13z m-23 -83 c-19 -27
-87 -127 -152 -223 -65 -96 -124 -181 -131 -189 -10 -11 -17 -10 -43 8 -17 12
-31 27 -31 32 0 6 4 8 9 5 5 -3 20 12 35 34 35 54 44 51 12 -4 -23 -39 -24
-45 -10 -57 20 -16 -3 -45 218 276 54 79 118 165 123 165 2 0 -11 -21 -30 -47z
m-188 -185 c-34 -46 -64 -85 -66 -87 -2 -2 -3 0 -3 5 0 10 118 164 126 164 3
0 -23 -37 -57 -82z m-338 -204 l68 -45 -32 -43 c-18 -23 -41 -56 -53 -71 l-21
-29 -49 31 c-27 17 -61 37 -76 44 l-26 14 46 77 c31 51 52 76 61 72 8 -2 45
-25 82 -50z m139 -100 c0 -3 -13 4 -30 16 -16 12 -30 24 -30 26 0 3 14 -4 30
-16 17 -12 30 -24 30 -26z m20 -94 c-18 -27 -34 -50 -37 -50 -3 0 5 15 17 33
11 17 26 42 32 55 6 12 13 20 16 17 2 -2 -10 -27 -28 -55z m-307 -62 c24 -18
52 -37 61 -43 15 -9 7 -30 -72 -195 -171 -354 -219 -456 -248 -528 l-29 -72
-84 0 c-63 0 -82 3 -78 13 3 6 46 100 95 207 49 107 126 275 171 373 91 199
129 277 136 277 3 0 24 -15 48 -32z m212 20 c14 -6 25 -15 25 -20 0 -7 -31 8
-59 29 -10 7 10 2 34 -9z m-54 -145 c-12 -20 -14 -14 -5 12 4 9 9 14 11 11 3
-2 0 -13 -6 -23z m-40 -90 c-12 -20 -14 -14 -5 12 4 9 9 14 11 11 3 -2 0 -13
-6 -23z m-46 -99 c-19 -42 -47 -103 -61 -135 -15 -33 -29 -58 -31 -56 -2 2 13
39 33 83 20 43 47 103 60 132 12 28 25 52 28 52 3 0 -10 -34 -29 -76z m-144
-307 c-10 -9 -11 -8 -5 6 3 10 9 15 12 12 3 -3 0 -11 -7 -18z m-50 -103 c-22
-44 -40 -76 -41 -72 0 11 73 158 78 154 2 -2 -15 -39 -37 -82z m-63 -111 c-10
-2 -26 -2 -35 0 -10 3 -2 5 17 5 19 0 27 -2 18 -5z m181 -61 c8 -14 116 -271
148 -350 4 -10 -6 -12 -42 -10 l-47 3 -52 130 c-28 72 -55 136 -59 143 -6 8
-49 12 -148 12 l-140 0 7 -22 c4 -13 22 -70 39 -128 18 -58 36 -113 40 -122 7
-17 -34 -18 -780 -18 -745 0 -787 1 -781 18 4 9 39 95 79 190 l72 172 827 0
c791 0 828 -1 837 -18z m-1809 -575 c-21 -51 -108 -258 -195 -462 -87 -203
-160 -378 -163 -388 -4 -17 5 -18 176 -15 99 2 183 5 185 8 3 3 53 160 112
350 59 190 125 402 147 473 l39 127 55 0 c30 0 54 -2 54 -5 0 -5 -297 -955
-306 -979 -3 -8 58 -89 143 -192 242 -292 328 -398 316 -391 -6 4 -54 58 -107
120 -73 86 -102 113 -122 115 -23 2 -26 -1 -21 -24 3 -19 1 -24 -10 -20 -7 3
43 -64 112 -149 70 -85 124 -155 122 -155 -3 0 -34 35 -70 78 -36 42 -152 181
-258 307 l-192 230 -194 5 c-106 3 -193 3 -193 1 0 -5 347 -662 387 -734 2 -4
2 -7 -1 -7 -2 0 -32 51 -67 113 -82 148 -103 179 -96 149 3 -13 1 -20 -5 -16
-6 4 -14 1 -18 -6 -5 -9 -13 -6 -29 12 -14 14 -3 -16 31 -82 59 -118 69 -140
63 -140 -4 0 -96 171 -265 495 -35 66 -78 147 -96 181 -19 33 -34 67 -34 73 0
7 15 47 33 89 18 43 116 271 217 507 l184 430 51 -3 52 -4 -37 -91z m273 86
c-7 -2 -21 -2 -30 0 -10 3 -4 5 12 5 17 0 24 -2 18 -5z m674 0 c-98 -2 -256
-2 -350 0 -95 1 -14 3 178 2 193 0 270 -1 172 -2z m1085 -40 c19 -45 63 -146
163 -378 236 -541 256 -593 243 -623 -23 -52 -159 -302 -164 -302 -3 0 33 74
81 164 l86 165 -84 188 c-47 103 -88 198 -91 211 -4 12 -12 19 -18 16 -6 -4
-8 -2 -5 4 9 13 -2 42 -15 42 -6 0 -6 -5 1 -14 9 -11 8 -18 -4 -30 -9 -9 -21
-14 -26 -11 -14 9 -12 4 47 -142 75 -185 77 -190 66 -178 -5 6 -51 109 -102
230 -105 250 -251 587 -285 658 l-23 47 54 0 55 0 21 -47z m-154 -753 c0 -8
-8 8 -18 35 -10 28 -18 57 -18 65 0 8 8 -7 18 -35 10 -27 18 -57 18 -65z m39
-132 c-3 -8 -6 -5 -6 6 -1 11 2 17 5 13 3 -3 4 -12 1 -19z m-80 -40 c-3 -8 -6
-5 -6 6 -1 11 2 17 5 13 3 -3 4 -12 1 -19z m386 5 c-51 -2 -136 -2 -190 0 -54
1 -12 3 92 3 105 0 149 -2 98 -3z m-383 -47 c0 -2 -8 -10 -17 -17 -16 -13 -17
-12 -4 4 13 16 21 21 21 13z m438 -33 c-16 -2 -40 -2 -55 0 -16 2 -3 4 27 4
30 0 43 -2 28 -4z m-468 -6 c0 -2 -12 -14 -27 -28 l-28 -24 24 28 c23 25 31
32 31 24z m90 -37 c-17 -22 -34 -40 -37 -40 -2 0 10 18 27 40 17 22 34 40 37
40 2 0 -10 -18 -27 -40z m383 -67 c-60 -115 -77 -132 -23 -23 39 79 58 110 66
110 1 0 -18 -39 -43 -87z m-523 43 c0 -2 -8 -10 -17 -17 -16 -13 -17 -12 -4 4
13 16 21 21 21 13z m100 -29 c0 -2 -10 -12 -22 -23 l-23 -19 19 23 c18 21 26
27 26 19z m-150 -31 c0 -2 -8 -10 -17 -17 -16 -13 -17 -12 -4 4 13 16 21 21
21 13z m110 -19 c0 -2 -12 -14 -27 -28 l-28 -24 24 28 c23 25 31 32 31 24z
m-150 -31 c0 -2 -8 -10 -17 -17 -16 -13 -17 -12 -4 4 13 16 21 21 21 13z m90
-40 c0 -2 -8 -10 -17 -17 -16 -13 -17 -12 -4 4 13 16 21 21 21 13z m-130 -10
c0 -2 -8 -10 -17 -17 -16 -13 -17 -12 -4 4 13 16 21 21 21 13z m90 -40 c0 -2
-8 -10 -17 -17 -16 -13 -17 -12 -4 4 13 16 21 21 21 13z m-130 -10 c0 -2 -8
-10 -17 -17 -16 -13 -17 -12 -4 4 13 16 21 21 21 13z m590 -26 c-6 -11 -13
-20 -16 -20 -2 0 0 9 6 20 6 11 13 20 16 20 2 0 0 -9 -6 -20z m-500 -13 c0 -2
-10 -12 -22 -23 l-23 -19 19 23 c18 21 26 27 26 19z m578 -22 c-6 -14 -13 -23
-15 -21 -5 5 15 46 22 46 3 0 -1 -11 -7 -25z m-48 -95 c-17 -33 -33 -60 -35
-60 -3 0 8 27 25 60 17 33 33 60 35 60 3 0 -8 -27 -25 -60z m-49 -93 c-10 -9
-11 -8 -5 6 3 10 9 15 12 12 3 -3 0 -11 -7 -18z m-1566 -27 c10 -11 16 -20 13
-20 -3 0 -13 9 -23 20 -10 11 -16 20 -13 20 3 0 13 -9 23 -20z m1535 -30 c-6
-11 -13 -20 -16 -20 -2 0 0 9 6 20 6 11 13 20 16 20 2 0 0 -9 -6 -20z m-1480
-35 c13 -14 21 -25 18 -25 -2 0 -15 11 -28 25 -13 14 -21 25 -18 25 2 0 15
-11 28 -25z m-680 -235 c6 -11 8 -20 6 -20 -3 0 -10 9 -16 20 -6 11 -8 20 -6
20 3 0 10 -9 16 -20z"/>
<path d="M3990 2045 c0 -5 5 -17 10 -25 5 -8 10 -10 10 -5 0 6 -5 17 -10 25
-5 8 -10 11 -10 5z"/>
<path d="M4021 1975 c0 -5 6 -21 14 -35 8 -14 14 -20 14 -15 0 6 -6 21 -14 35
-8 14 -14 21 -14 15z"/>
<path d="M3287 4675 c-11 -7 -37 -17 -60 -20 -27 -5 -48 -17 -65 -36 -16 -20
-33 -29 -53 -29 -26 0 -29 -4 -29 -30 0 -16 5 -30 11 -30 5 0 7 4 4 10 -3 5 0
7 9 4 8 -3 25 1 38 9 13 9 55 28 93 43 39 15 75 31 80 37 7 7 5 7 -4 2 -10 -6
-12 -1 -6 24 7 35 7 36 -18 16z"/>
<path d="M3061 4654 c0 -11 3 -14 6 -6 3 7 2 16 -1 19 -3 4 -6 -2 -5 -13z"/>
<path d="M2838 4633 c7 -3 16 -2 19 1 4 3 -2 6 -13 5 -11 0 -14 -3 -6 -6z"/>
<path d="M2833 4363 c9 -2 25 -2 35 0 9 3 1 5 -18 5 -19 0 -27 -2 -17 -5z"/>
<path d="M3347 4299 c7 -7 15 -10 18 -7 3 3 -2 9 -12 12 -14 6 -15 5 -6 -5z"/>
<path d="M2726 4215 c-9 -26 -7 -32 5 -12 6 10 9 21 6 23 -2 3 -7 -2 -11 -11z"/>
<path d="M2701 4149 c-6 -18 -9 -34 -7 -36 2 -2 9 10 15 28 6 18 9 34 7 36 -2
2 -9 -10 -15 -28z"/>
<path d="M3117 4139 c7 -7 15 -10 18 -7 3 3 -2 9 -12 12 -14 6 -15 5 -6 -5z"/>
<path d="M2146 4085 c-11 -8 -15 -15 -9 -15 6 0 16 7 23 15 16 19 11 19 -14 0z"/>
<path d="M2676 4085 c-9 -26 -7 -32 5 -12 6 10 9 21 6 23 -2 3 -7 -2 -11 -11z"/>
<path d="M3309 4023 c57 -42 65 -51 67 -85 2 -19 4 -39 6 -45 2 -6 -8 -20 -22
-32 -14 -13 -18 -19 -10 -15 36 17 50 38 50 76 0 21 -4 38 -10 38 -5 0 -7 6
-4 14 3 7 -3 16 -13 19 -10 3 -34 15 -53 27 -19 12 -24 13 -11 3z"/>
<path d="M1977 3983 c-4 -3 -7 -18 -6 -32 1 -26 1 -25 10 3 9 31 7 41 -4 29z"/>
<path d="M2638 3975 c-3 -11 -9 -29 -13 -40 -3 -11 1 -7 10 8 9 16 15 33 12
40 -2 6 -6 3 -9 -8z"/>
<path d="M2746 3975 c-9 -26 -7 -32 5 -12 6 10 9 21 6 23 -2 3 -7 -2 -11 -11z"/>
<path d="M2607 3888 c-9 -31 -2 -33 11 -3 6 14 8 25 3 25 -5 0 -11 -10 -14
-22z"/>
<path d="M1987 3869 c7 -7 15 -10 18 -7 3 3 -2 9 -12 12 -14 6 -15 5 -6 -5z"/>
<path d="M2576 3815 c-9 -26 -7 -32 5 -12 6 10 9 21 6 23 -2 3 -7 -2 -11 -11z"/>
<path d="M2556 3755 c-9 -26 -7 -32 5 -12 6 10 9 21 6 23 -2 3 -7 -2 -11 -11z"/>
<path d="M2666 3755 c-9 -26 -7 -32 5 -12 6 10 9 21 6 23 -2 3 -7 -2 -11 -11z"/>
<path d="M2981 3734 c0 -11 3 -14 6 -6 3 7 2 16 -1 19 -3 4 -6 -2 -5 -13z"/>
<path d="M3165 3740 c-3 -6 1 -7 9 -4 18 7 21 14 7 14 -6 0 -13 -4 -16 -10z"/>
<path d="M2995 3640 c-3 -6 1 -7 9 -4 18 7 21 14 7 14 -6 0 -13 -4 -16 -10z"/>
<path d="M2858 3403 c34 -2 88 -2 120 0 31 2 3 3 -63 3 -66 0 -92 -1 -57 -3z"/>
<path d="M3102 3365 c0 -16 2 -22 5 -12 2 9 2 23 0 30 -3 6 -5 -1 -5 -18z"/>
</g>
</svg>
